<svg width="28" height="26" viewBox="0 0 22 19" fill="none" xmlns="http://www.w3.org/2000/svg">
<path d="M7 0.246826C5.30408 0.246826 5.09179 0.254147 4.42562 0.283429C3.75946 0.315151 3.30803 0.420078 2.91028 0.573809C2.50033 0.73242 2.15138 0.947155 1.80244 1.29366C1.4535 1.64016 1.2412 1.98911 1.08259 2.4015C0.92886 2.79924 0.823932 3.25312 0.79221 3.91684C0.760488 4.58301 0.755608 4.7953 0.755608 6.49122C0.755608 8.18714 0.762928 8.39944 0.79221 9.0656C0.823932 9.72933 0.92886 10.1832 1.08259 10.5809C1.2412 10.9909 1.45594 11.3398 1.80244 11.6888C2.14894 12.0353 2.49789 12.25 2.91028 12.4086C3.30803 12.5624 3.7619 12.6673 4.42562 12.699C5.09179 12.7307 5.30408 12.7356 7 12.7356C8.69592 12.7356 8.90822 12.7283 9.57438 12.699C10.2381 12.6673 10.692 12.5624 11.0897 12.4086C11.4997 12.25 11.8486 12.0353 12.1976 11.6888C12.5441 11.3423 12.7588 10.9933 12.9174 10.5809C13.0711 10.1832 13.1761 9.72933 13.2078 9.0656C13.2395 8.39944 13.2444 8.18714 13.2444 6.49122C13.2444 4.7953 13.2371 4.58301 13.2078 3.91684C13.1761 3.25312 13.0711 2.79924 12.9174 2.4015C12.7588 1.99155 12.5441 1.6426 12.1976 1.29366C11.8511 0.947155 11.5021 0.73242 11.0897 0.573809C10.692 0.420078 10.2381 0.315151 9.57438 0.283429C8.90822 0.254147 8.69592 0.246826 7 0.246826ZM7 1.37174C8.66664 1.37174 8.86673 1.37907 9.52558 1.40835C10.1356 1.43763 10.465 1.53768 10.6847 1.62552C10.9775 1.73777 11.1849 1.87442 11.4045 2.0916C11.6217 2.31121 11.7583 2.51863 11.8706 2.81145C11.956 3.03106 12.0585 3.36048 12.0853 3.97053C12.1146 4.62937 12.1219 4.82703 12.1219 6.4961C12.1219 8.16518 12.1146 8.36283 12.0829 9.02168C12.0512 9.63172 11.9487 9.96114 11.8633 10.1808C11.7461 10.4736 11.6144 10.681 11.3947 10.9006C11.1776 11.1178 10.9653 11.2544 10.6773 11.3667C10.4577 11.4521 10.1234 11.5546 9.51338 11.5814C8.84965 11.6107 8.65444 11.618 6.98292 11.618C5.3114 11.618 5.11619 11.6107 4.45247 11.579C3.84242 11.5473 3.50812 11.4448 3.2885 11.3594C2.99324 11.2422 2.78827 11.1105 2.57109 10.8909C2.35148 10.6737 2.21239 10.4614 2.10258 10.1734C2.01718 9.95382 1.91469 9.61952 1.88297 9.00948C1.85856 8.35307 1.85124 8.15054 1.85124 6.48878C1.85124 4.82459 1.85856 4.62205 1.88297 3.95833C1.91469 3.34828 2.01473 3.01398 2.10258 2.79436C2.21239 2.49666 2.35148 2.29413 2.57109 2.07451C2.78827 1.85734 2.99324 1.71581 3.2885 1.606C3.50812 1.5206 3.8351 1.41811 4.44514 1.38639C5.10887 1.36198 5.30408 1.35466 6.9756 1.35466L7 1.37174ZM7 3.28484C5.22844 3.28484 3.79118 4.7221 3.79118 6.49366C3.79118 8.26523 5.22844 9.70249 7 9.70249C8.77157 9.70249 10.2088 8.26523 10.2088 6.49366C10.2088 4.7221 8.77157 3.28484 7 3.28484ZM7 8.57513C5.85068 8.57513 4.91854 7.64298 4.91854 6.49366C4.91854 5.34434 5.85068 4.4122 7 4.4122C8.14932 4.4122 9.08147 5.34434 9.08147 6.49366C9.08147 7.64298 8.14932 8.57513 7 8.57513ZM11.0848 3.16039C11.0848 3.57522 10.7481 3.90952 10.3357 3.90952C9.92089 3.90952 9.58658 3.57278 9.58658 3.16039C9.58658 2.748 9.92333 2.41126 10.3357 2.41126C10.7481 2.40882 11.0848 2.74556 11.0848 3.16039Z" fill="#FAFAFA"/>
</svg>
